<?xml version="1.0" encoding="UTF-8" standalone="no"?>
<svg
   xmlns:dc="http://purl.org/dc/elements/1.1/"
   xmlns:cc="http://creativecommons.org/ns#"
   xmlns:rdf="http://www.w3.org/1999/02/22-rdf-syntax-ns#"
   xmlns:svg="http://www.w3.org/2000/svg"
   xmlns="http://www.w3.org/2000/svg"
   xmlns:sodipodi="http://sodipodi.sourceforge.net/DTD/sodipodi-0.dtd"
   xmlns:inkscape="http://www.inkscape.org/namespaces/inkscape"
   width="510"
   height="900"
   viewBox="0 0 510 900"
   version="1.1"
   id="svg821"
   sodipodi:docname="12.svg"
   inkscape:version="0.92.3 (2405546, 2018-03-11)">
  <metadata
     id="metadata825">
    <rdf:RDF>
      <cc:Work
         rdf:about="">
        <dc:format>image/svg+xml</dc:format>
        <dc:type
           rdf:resource="http://purl.org/dc/dcmitype/StillImage" />
      </cc:Work>
    </rdf:RDF>
  </metadata>
  <sodipodi:namedview
     pagecolor="#EFEEE6fff"
     bordercolor="#666666"
     borderopacity="1"
     objecttolerance="10"
     gridtolerance="10"
     guidetolerance="10"
     inkscape:pageopacity="0"
     inkscape:pageshadow="2"
     inkscape:window-width="640"
     inkscape:window-height="480"
     id="namedview823"
     showgrid="false"
     inkscape:zoom="0.26222222"
     inkscape:cx="255"
     inkscape:cy="450"
     inkscape:window-x="0"
     inkscape:window-y="0"
     inkscape:window-maximized="0"
     inkscape:current-layer="svg821" />
  <defs
     id="defs571">
    <style
       id="style569">.a,.e{fill:#272D22;}.a,.b,.c,.d{stroke:#1a1a1a;}.a,.b,.c,.d,.e{stroke-miterlimit:2;}.a,.b,.c{stroke-width:8px;}.b{fill:#f8dc2a;}.c{fill:none;}.d{fill:#EFEEE6;stroke-width:15px;}.e{stroke:#272D22;stroke-width:12px;}</style>
  </defs>
  <title
     id="title573">12</title>
  <path
     class="a"
     d="M534.33,438.74c-35.67-180.66-96-339.9-96-339.9S319.93,411.13,316.74,657.22C230.61,591,163.53,548.4,163.53,548.4s51.09,177.27,136.85,349.94c-5.56,6.72,155.27,8.42,234,5.1Z"
     id="path575" />
  <path
     class="a"
     d="M522.73,816.74V789.39c-23.74,30.3-48.27,61.73-72.67,93.16.52-33.25.81-76.32.81-132.09,0-247.54-12.57-651.62-12.57-651.62s-12.57,404.08-12.57,651.62c0,55.68.29,98.68.81,131.92-129.78-167.2-263-334-263-334S296.06,737.28,424.87,915.08c-2.68,3.46,29.68,3.46,27,0C475.65,882.26,499.55,849.06,522.73,816.74Z"
     id="path577" />
  <rect
     class="b"
     x="422.57"
     y="87.92"
     width="31.46"
     height="69.87"
     id="rect579" />
  <path
     class="c"
     d="M435.42,359.62c-34.52,0-69-35.2-69-35.2"
     id="path581" />
  <path
     class="c"
     d="M433.4,328.83c-29.39,0-58.79-30-58.79-30"
     id="path583" />
  <path
     class="c"
     d="M436.21,301.32c-28.09,0-56.19-28.65-56.19-28.65"
     id="path585" />
  <path
     class="c"
     d="M435.67,271.12c-23.41,0-46.82-23.87-46.82-23.87"
     id="path587" />
  <path
     class="c"
     d="M435.82,239.58c-19.55,0-39.1-19.94-39.1-19.94"
     id="path589" />
  <path
     class="c"
     d="M435.64,208.68c-15.58,0-31.16-15.89-31.16-15.89"
     id="path591" />
  <path
     class="c"
     d="M432.91,390.61c-36.53,0-73.07-37.25-73.07-37.25"
     id="path593" />
  <path
     class="c"
     d="M432.09,452.14c-42,0-84-42.81-84-42.81"
     id="path595" />
  <path
     class="c"
     d="M431.85,421.37c-39.29,0-78.58-40.06-78.58-40.06"
     id="path597" />
  <path
     class="c"
     d="M429.26,634.3C375,634.3,320.72,579,320.72,579"
     id="path599" />
  <path
     class="c"
     d="M428.91,602.81c-52.44,0-104.89-53.47-104.89-53.47"
     id="path601" />
  <path
     class="c"
     d="M428.94,575.56c-50.86,0-101.72-51.85-101.72-51.85"
     id="path603" />
  <path
     class="c"
     d="M430.08,544.68c-48.82,0-97.63-49.77-97.63-49.77"
     id="path605" />
  <path
     class="c"
     d="M429.86,513.84c-46.49,0-93-47.4-93-47.4"
     id="path607" />
  <path
     class="c"
     d="M431,483c-44.29,0-88.58-45.15-88.58-45.15"
     id="path609" />
  <path
     class="c"
     d="M429.32,665.42c-55,0-110-56.07-110-56.07"
     id="path611" />
  <path
     class="c"
     d="M428,696.65c-55.12,0-110.24-54.88-110.24-54.88"
     id="path613" />
  <path
     class="c"
     d="M441.31,359.62c34.53,0,69.05-35.2,69.05-35.2"
     id="path615" />
  <path
     class="c"
     d="M443.33,328.83c29.4,0,58.8-30,58.8-30"
     id="path617" />
  <path
     class="c"
     d="M440.53,301.32c28.09,0,56.18-28.65,56.18-28.65"
     id="path619" />
  <path
     class="c"
     d="M441.06,271.12c23.42,0,46.83-23.87,46.83-23.87"
     id="path621" />
  <path
     class="c"
     d="M440.92,239.58c19.55,0,39.1-19.94,39.1-19.94"
     id="path623" />
  <path
     class="c"
     d="M441.1,208.68c15.58,0,31.16-15.89,31.16-15.89"
     id="path625" />
  <path
     class="c"
     d="M443.82,390.61c36.54,0,73.08-37.25,73.08-37.25"
     id="path627" />
  <path
     class="c"
     d="M444.64,452.14c28,0,55.95-19,71.51-31.68"
     id="path629" />
  <path
     class="c"
     d="M444.89,421.37c27.88,0,55.75-20.16,69.6-31.88"
     id="path631" />
  <path
     class="c"
     d="M447.48,634.3c25.77,0,51.54-12.48,71.5-25.59"
     id="path633" />
  <path
     class="c"
     d="M447.83,602.81c25.25,0,50.5-12.4,69.9-25.25"
     id="path635" />
  <path
     class="c"
     d="M447.79,575.56c25.43,0,50.87-13,69.94-25.93"
     id="path637" />
  <path
     class="c"
     d="M446.66,544.68c26.8,0,53.6-15,72.32-28.53"
     id="path639" />
  <path
     class="c"
     d="M446.87,513.84c27.11,0,54.22-16.11,72.11-29.55"
     id="path641" />
  <path
     class="c"
     d="M445.75,483c26.71,0,53.41-16.41,70.4-29.45"
     id="path643" />
  <path
     class="c"
     d="M447.42,665.42c24.56,0,49.12-11.19,68.78-23.57"
     id="path645" />
  <path
     class="c"
     d="M448.72,696.65c24.65,0,49.29-11.23,69-23.66"
     id="path647" />
  <path
     class="c"
     d="M471.15,885.6c13.3,10,30.24,15.08,46.51,17.54"
     id="path649" />
  <path
     class="c"
     d="M488.76,860.23c8.49,6.36,18.53,10.64,28.89,13.49"
     id="path651" />
  <path
     class="c"
     d="M514.56,752.48c-13.78-29.12-18.17-67.32-18.17-67.32"
     id="path653" />
  <path
     class="c"
     d="M496.32,827.35c-33.61-25.17-45.52-97.82-45.52-97.82"
     id="path655" />
  <path
     class="c"
     d="M514.56,802.58C483.12,779,471.73,694.35,471.73,694.35"
     id="path657" />
  <path
     class="c"
     d="M476.94,851.37c-11.08-8.3-19.51-20.12-25.87-32.46"
     id="path659" />
  <rect
     class="b"
     x="162.19"
     y="532.68"
     width="31.46"
     height="69.87"
     transform="translate(-304.79 220) rotate(-36.84)"
     id="rect661" />
  <path
     class="c"
     d="M317.57,758.83c-27.63,20.7-76.36,13.23-76.36,13.23"
     id="path663" />
  <path
     class="c"
     d="M297.5,735.4c-23.53,17.63-65,11.27-65,11.27"
     id="path665" />
  <path
     class="c"
     d="M283.25,711.7c-22.49,16.84-62.15,10.76-62.15,10.76"
     id="path667" />
  <path
     class="c"
     d="M264.71,687.85c-18.74,14-51.78,9-51.78,9"
     id="path669" />
  <path
     class="c"
     d="M245.92,662.52c-15.65,11.72-43.25,7.49-43.25,7.49"
     id="path671" />
  <path
     class="c"
     d="M227.25,637.9c-12.47,9.34-34.47,6-34.47,6"
     id="path673" />
  <path
     class="c"
     d="M334.14,785.14c-29.24,21.91-80.81,14-80.81,14"
     id="path675" />
  <path
     class="c"
     d="M370.38,834.88C336.77,860.06,277.49,851,277.49,851"
     id="path677" />
  <path
     class="c"
     d="M351.73,810.4c-31.44,23.56-86.91,15.05-86.91,15.05"
     id="path679" />
  <path
     class="c"
     d="M405.58,885.6c-37.2,27.87-102.83,17.81-102.83,17.81"
     id="path681" />
  <path
     class="c"
     d="M388,860.23c-35.45,26.55-98,17-98,17"
     id="path683" />
  <path
     class="c"
     d="M322.28,755.3c27.63-20.7,36.8-82.77,36.8-82.77"
     id="path685" />
  <path
     class="c"
     d="M305.44,729.45C329,711.82,338.49,657,338.49,657"
     id="path687" />
  <path
     class="c"
     d="M286.7,709.11c22.48-16.84,27.8-56.61,27.8-56.61"
     id="path689" />
  <path
     class="c"
     d="M269,684.62c18.73-14,23.16-47.17,23.16-47.17"
     id="path691" />
  <path
     class="c"
     d="M250,659.47c15.65-11.73,19.34-39.41,19.34-39.41"
     id="path693" />
  <path
     class="c"
     d="M231.62,634.63c12.47-9.34,15.41-31.4,15.41-31.4"
     id="path695" />
  <path
     class="c"
     d="M342.88,778.6c29.24-21.9,37.47-93.44,37.47-93.44"
     id="path697" />
  <path
     class="c"
     d="M380.42,827.35c33.61-25.17,45.51-97.82,45.51-97.82"
     id="path699" />
  <path
     class="c"
     d="M362.17,802.58C393.62,779,405,694.35,405,694.35"
     id="path701" />
  <path
     class="c"
     d="M399.8,851.37c11.08-8.3,19.51-20.12,25.87-32.46"
     id="path703" />
  <path
     class="a"
     d="M-7.31,908.28H130.32c41.56-94.49,65.61-177.93,65.61-177.93S151.72,758.41,95,802.06c-2.08-162-80-367.65-80-367.65S4.19,462.82-9.45,506.83Z"
     id="path705" />
  <path
     class="a"
     d="M55.45,908.28H69.62c67.77-94.5,126.31-177.93,126.31-177.93S129.2,813.89,55.45,908.28Z"
     id="path707" />
  <path
     class="a"
     d="M23.11,908.28c.08-13.38.12-28.28.12-44.91,0-163-8.28-429-8.28-429s-8.27,266-8.27,429c0,16.63,0,31.53.11,44.91Z"
     id="path709" />
  <rect
     class="b"
     x="4.6"
     y="427.22"
     width="20.71"
     height="45.99"
     id="rect711" />
  <path
     class="c"
     d="M13.06,606.08c-7.65,0-15.3-2.63-22.08-6.11"
     id="path713" />
  <path
     class="c"
     d="M11.73,585.81C4.47,585.81-2.79,583-9,579.57"
     id="path715" />
  <path
     class="c"
     d="M13.58,567.7c-8.22,0-16.44-3.72-23-7.86"
     id="path717" />
  <path
     class="c"
     d="M13.22,547.82c-8.38,0-16.77-4.65-22.67-8.9"
     id="path719" />
  <path
     class="c"
     d="M13.32,527.05c-9.11,0-18.23-6.58-22.77-10.42"
     id="path721" />
  <path
     class="c"
     d="M13.2,506.71c-10.26,0-20.51-10.45-20.51-10.45"
     id="path723" />
  <path
     class="c"
     d="M11.41,626.48c-7,0-14-2.08-20.43-5"
     id="path725" />
  <path
     class="c"
     d="M10.87,667A54,54,0,0,1-9,662.75"
     id="path727" />
  <path
     class="c"
     d="M10.7,646.73A51.49,51.49,0,0,1-9,642.31"
     id="path729" />
  <path
     class="c"
     d="M9,786.9a62.9,62.9,0,0,1-17.18-2.55"
     id="path731" />
  <path
     class="c"
     d="M8.77,766.17a61.35,61.35,0,0,1-16.95-2.56"
     id="path733" />
  <path
     class="c"
     d="M8.79,748.24a59.73,59.73,0,0,1-17-2.65"
     id="path735" />
  <path
     class="c"
     d="M9.54,727.9a58.36,58.36,0,0,1-17.83-3"
     id="path737" />
  <path
     class="c"
     d="M9.4,707.6A56.8,56.8,0,0,1-9,704.25"
     id="path739" />
  <path
     class="c"
     d="M10.14,687.29A55.54,55.54,0,0,1-9,683.52"
     id="path741" />
  <path
     class="c"
     d="M9,807.39a64,64,0,0,1-17.22-2.53"
     id="path743" />
  <path
     class="c"
     d="M8.18,828A63.73,63.73,0,0,1-7,826"
     id="path745" />
  <path
     class="c"
     d="M16.94,606.08c22.72,0,45.45-23.17,45.45-23.17"
     id="path747" />
  <path
     class="c"
     d="M18.27,585.81c19.35,0,38.7-19.73,38.7-19.73"
     id="path749" />
  <path
     class="c"
     d="M16.42,567.7c18.49,0,37-18.86,37-18.86"
     id="path751" />
  <path
     class="c"
     d="M16.77,547.82c15.41,0,30.83-15.71,30.83-15.71"
     id="path753" />
  <path
     class="c"
     d="M16.68,527.05c12.87,0,25.74-13.12,25.74-13.12"
     id="path755" />
  <path
     class="c"
     d="M16.79,506.71c10.26,0,20.52-10.45,20.52-10.45"
     id="path757" />
  <path
     class="c"
     d="M18.59,626.48c24.05,0,48.1-24.52,48.1-24.52"
     id="path759" />
  <path
     class="c"
     d="M19.13,667c27.64,0,55.29-28.19,55.29-28.19"
     id="path761" />
  <path
     class="c"
     d="M19.29,646.73c25.87,0,51.73-26.37,51.73-26.37"
     id="path763" />
  <path
     class="c"
     d="M21,786.9c35.72,0,71.45-36.42,71.45-36.42"
     id="path765" />
  <path
     class="c"
     d="M21.22,766.17c34.53,0,69.05-35.2,69.05-35.2"
     id="path767" />
  <path
     class="c"
     d="M21.2,748.24c33.48,0,67-34.14,67-34.14"
     id="path769" />
  <path
     class="c"
     d="M20.46,727.9c32.13,0,64.27-32.76,64.27-32.76"
     id="path771" />
  <path
     class="c"
     d="M20.6,707.6c30.6,0,61.21-31.2,61.21-31.2"
     id="path773" />
  <path
     class="c"
     d="M19.86,687.29c29.16,0,58.31-29.73,58.31-29.73"
     id="path775" />
  <path
     class="c"
     d="M21,807.39c36.21,0,72.41-36.91,72.41-36.91"
     id="path777" />
  <path
     class="c"
     d="M21.81,828c36.29,0,72.58-37,72.58-37"
     id="path779" />
  <rect
     class="b"
     x="176.09"
     y="720.01"
     width="20.71"
     height="45.99"
     transform="translate(-109.79 1449.45) rotate(-143.16)"
     id="rect781" />
  <path
     class="c"
     d="M94.52,868.88c18.19,13.63,50.27,8.71,50.27,8.71"
     id="path783" />
  <path
     class="c"
     d="M107.74,853.46c15.48,11.6,42.8,7.41,42.8,7.41"
     id="path785" />
  <path
     class="c"
     d="M117.12,837.86c14.8,11.08,40.9,7.08,40.9,7.08"
     id="path787" />
  <path
     class="c"
     d="M129.32,822.16c12.33,9.24,34.09,5.9,34.09,5.9"
     id="path789" />
  <path
     class="c"
     d="M141.69,805.48c10.3,7.72,28.47,4.93,28.47,4.93"
     id="path791" />
  <path
     class="c"
     d="M154,789.27c8.21,6.15,22.69,3.93,22.69,3.93"
     id="path793" />
  <path
     class="c"
     d="M83.61,886.2c19.25,14.43,53.2,9.22,53.2,9.22"
     id="path795" />
  <path
     class="c"
     d="M91.42,866.56c-18.19-13.63-24.23-54.49-24.23-54.49"
     id="path797" />
  <path
     class="c"
     d="M102.5,849.54C87,837.94,80.75,801.85,80.75,801.85"
     id="path799" />
  <path
     class="c"
     d="M114.84,836.15c-14.8-11.09-18.3-37.27-18.3-37.27"
     id="path801" />
  <path
     class="c"
     d="M126.48,820C114.14,810.79,111.23,789,111.23,789"
     id="path803" />
  <path
     class="c"
     d="M139,803.47c-10.3-7.72-12.73-25.94-12.73-25.94"
     id="path805" />
  <path
     class="c"
     d="M151.1,787.12C142.89,781,141,766.45,141,766.45"
     id="path807" />
  <path
     class="c"
     d="M77.86,881.9c-19.25-14.42-24.67-61.51-24.67-61.51"
     id="path809" />
  <path
     class="c"
     d="M53.14,914c-22.12-16.57-30-64.4-30-64.4"
     id="path811" />
  <path
     class="c"
     d="M65.16,897.68C44.46,882.18,37,826.43,37,826.43"
     id="path813" />
  <path
     class="c"
     d="M-7.39,893.69c10.24-19.93,14.2-44.1,14.2-44.1"
     id="path815" />
</svg>
