<?xml version="1.0" encoding="UTF-8" standalone="no"?>
<svg
   xmlns:dc="http://purl.org/dc/elements/1.1/"
   xmlns:cc="http://creativecommons.org/ns#"
   xmlns:rdf="http://www.w3.org/1999/02/22-rdf-syntax-ns#"
   xmlns:svg="http://www.w3.org/2000/svg"
   xmlns="http://www.w3.org/2000/svg"
   xmlns:sodipodi="http://sodipodi.sourceforge.net/DTD/sodipodi-0.dtd"
   xmlns:inkscape="http://www.inkscape.org/namespaces/inkscape"
   width="510"
   height="900"
   viewBox="0 0 510 900"
   version="1.1"
   id="svg142"
   sodipodi:docname="83.svg"
   inkscape:version="0.92.3 (2405546, 2018-03-11)">
  <metadata
     id="metadata146">
    <rdf:RDF>
      <cc:Work
         rdf:about="">
        <dc:format>image/svg+xml</dc:format>
        <dc:type
           rdf:resource="http://purl.org/dc/dcmitype/StillImage" />
      </cc:Work>
    </rdf:RDF>
  </metadata>
  <sodipodi:namedview
     pagecolor="#EFEEE6fff"
     bordercolor="#666666"
     borderopacity="1"
     objecttolerance="10"
     gridtolerance="10"
     guidetolerance="10"
     inkscape:pageopacity="0"
     inkscape:pageshadow="2"
     inkscape:window-width="640"
     inkscape:window-height="480"
     id="namedview144"
     showgrid="false"
     inkscape:zoom="0.26222222"
     inkscape:cx="255"
     inkscape:cy="450"
     inkscape:window-x="0"
     inkscape:window-y="0"
     inkscape:window-maximized="0"
     inkscape:current-layer="svg142" />
  <defs
     id="defs122">
    <style
       id="style120">.a,.c{fill:#272D22;}.a,.b{stroke:#1a1a1a;}.a{stroke-miterlimit:10;stroke-width:8px;}.b{fill:#EFEEE6;stroke-width:15px;}.b,.c{stroke-miterlimit:2;}.c{stroke:#272D22;stroke-width:12px;}</style>
  </defs>
  <title
     id="title124">83</title>
  <path
     class="a"
     d="M0,594.44c68-43.8,157.28-70.36,255-70.36s187,26.56,255,70.36V900H0Z"
     id="path126" />
  <path
     class="a"
     d="M419.4,591.85a523.44,523.44,0,0,1,90.6,7.82V900H34.52A211.15,211.15,0,0,1,33,874.76C33,718.51,206,591.85,419.4,591.85Z"
     id="path128" />
  <path
     class="a"
     d="M0,617.16c2.9,0,5.8-.08,8.72-.08,213.4,0,386.39,126.67,386.39,282.92H0Z"
     id="path130" />
  <path
     class="a"
     d="M510,680V900H243.85C269.51,795.45,373.64,710.84,510,680Z"
     id="path132" />
  <path
     class="a"
     d="M0,900V709.89C91.15,751.35,157,819.81,176.68,900Z"
     id="path134" />
  <path
     class="a"
     d="M0,900V814.33a513,513,0,0,1,135.94-18c120.5,0,228.11,40.39,299,103.68Z"
     id="path136" />
</svg>
